<svg width="640" height="499" viewBox="0 0 640 499" fill="none" xmlns="http://www.w3.org/2000/svg">
<g opacity="0.08">
<circle cx="378" cy="16" r="16" fill="#212121"/>
<circle cx="426" cy="16" r="16" fill="#212121"/>
<circle cx="474" cy="16" r="16" fill="#212121"/>
<circle cx="522" cy="16" r="16" fill="#212121"/>
<circle cx="330" cy="64" r="16" fill="#212121"/>
<circle cx="378" cy="64" r="16" fill="#212121"/>
<circle cx="426" cy="64" r="16" fill="#212121"/>
<circle cx="474" cy="64" r="16" fill="#212121"/>
<circle cx="522" cy="64" r="16" fill="#212121"/>
<circle cx="570" cy="64" r="16" fill="#212121"/>
<circle cx="282" cy="112" r="16" fill="#212121"/>
<circle cx="330" cy="112" r="16" fill="#212121"/>
<circle cx="378" cy="112" r="16" fill="#212121"/>
<circle cx="426" cy="112" r="16" fill="#212121"/>
<circle cx="474" cy="112" r="16" fill="#212121"/>
<circle cx="522" cy="112" r="16" fill="#212121"/>
<circle cx="570" cy="112" r="16" fill="#212121"/>
<circle cx="618" cy="112" r="16" fill="#212121"/>
<circle cx="282" cy="160" r="16" fill="#212121"/>
<circle cx="330" cy="160" r="16" fill="#212121"/>
<circle cx="378" cy="160" r="16" fill="#212121"/>
<circle cx="426" cy="160" r="16" fill="#212121"/>
<circle cx="474" cy="160" r="16" fill="#212121"/>
<circle cx="522" cy="160" r="16" fill="#212121"/>
<circle cx="570" cy="160" r="16" fill="#212121"/>
<circle cx="618" cy="160" r="16" fill="#212121"/>
<circle cx="282" cy="208" r="16" fill="#212121"/>
<circle cx="330" cy="208" r="16" fill="#212121"/>
<circle cx="378" cy="208" r="16" fill="#212121"/>
<circle cx="426" cy="208" r="16" fill="#212121"/>
<circle cx="474" cy="208" r="16" fill="#212121"/>
<circle cx="522" cy="208" r="16" fill="#212121"/>
<circle cx="570" cy="208" r="16" fill="#212121"/>
<circle cx="618" cy="208" r="16" fill="#212121"/>
<circle cx="282" cy="256" r="16" fill="#212121"/>
<circle cx="330" cy="256" r="16" fill="#212121"/>
<circle cx="378" cy="256" r="16" fill="#212121"/>
<circle cx="426" cy="256" r="16" fill="#212121"/>
<circle cx="474" cy="256" r="16" fill="#212121"/>
<circle cx="522" cy="256" r="16" fill="#212121"/>
<circle cx="570" cy="256" r="16" fill="#212121"/>
<circle cx="618" cy="256" r="16" fill="#212121"/>
<circle cx="330" cy="304" r="16" fill="#212121"/>
<circle cx="378" cy="304" r="16" fill="#212121"/>
<circle cx="426" cy="304" r="16" fill="#212121"/>
<circle cx="474" cy="304" r="16" fill="#212121"/>
<circle cx="522" cy="304" r="16" fill="#212121"/>
<circle cx="570" cy="304" r="16" fill="#212121"/>
<circle cx="378" cy="352" r="16" fill="#212121"/>
<circle cx="426" cy="352" r="16" fill="#212121"/>
<circle cx="474" cy="352" r="16" fill="#212121"/>
<circle cx="522" cy="352" r="16" fill="#212121"/>
</g>
<path opacity="0.08" d="M28.0564 422.85C28.0564 422.85 45.1208 405.608 145.57 399.9C246.019 394.193 570.335 390.712 618.433 397.159C666.531 403.608 632.134 482.604 535.576 493.997C439.017 505.391 302.471 486.557 187.042 497.191C71.6144 507.828 -58.2532 470.037 28.0564 422.85Z" fill="#212121"/>
<path d="M532.857 226.551C541 226.885 525.054 236.527 506.39 240.489C487.724 244.444 491.721 256.815 479.923 255.484C466.197 253.933 455.452 254.061 446.918 255.183C443.141 255.679 439.054 256.468 434.678 257.128C447.936 254.996 459.761 246.109 436.785 247.365C413.372 248.647 413.437 244.737 412.286 248.291C410.734 253.096 400.544 253.344 392.894 258.251L392.68 257.921C392.68 257.921 392.46 254.614 391.072 250.386C391.072 250.386 424.272 235.668 460.238 231.617C496.209 227.564 524.712 226.211 532.857 226.551Z" fill="white"/>
<path d="M429.784 372.677C447.686 391.647 448.231 415.676 441.552 423.318H441.522C440.29 394.316 396.033 363.157 370.576 343.067C368.236 341.22 366.056 339.468 364.081 337.822V337.817C364.081 337.817 370.424 336.763 376.379 334.697C382.34 332.637 383.362 327.486 383.362 327.486C395.564 339.047 420.353 362.68 429.784 372.677Z" fill="#FF4081"/>
<path d="M299.444 376.135C296.139 371.781 293.001 367.39 290.032 363.005C293.005 364.924 305.954 371.792 333.215 367.359C364.691 362.246 374.221 345.98 370.577 343.067C396.033 363.157 440.29 394.316 441.522 423.318C441.74 428.408 440.637 433.426 437.873 438.307C414.845 478.982 338.17 462.848 338.17 462.848C326.147 439.194 325.175 405.888 325.175 405.888C318.923 399.588 312.949 392.939 307.334 386.124C304.616 382.825 301.983 379.494 299.444 376.135Z" fill="#FF4081"/>
<path d="M338.17 462.848C338.17 462.848 322.814 456.843 306.218 454.907C304.346 454.69 302.059 454.421 299.448 454.126C299.448 454.126 309.669 412.627 307.332 386.121C312.947 392.937 318.921 399.586 325.172 405.885C325.175 405.887 326.147 439.194 338.17 462.848Z" fill="white"/>
<path d="M307.334 386.124C309.671 412.63 299.45 454.129 299.45 454.129C278.927 451.8 238.141 447.678 216.753 451.273C192.637 455.324 157.743 455.233 157.743 455.233C185.605 452.6 170.056 431.988 170.056 431.988C206.221 422.716 252.281 403.776 259.386 391.283C261.662 387.282 263.042 380.607 263.835 372.551L265.117 372.677L299.444 376.135C301.983 379.494 304.616 382.825 307.334 386.124Z" fill="#212121"/>
<path d="M135.118 451.869C140.33 456.265 111.576 458.108 86.3248 460.129C61.0737 462.15 44.3885 452.791 52.5317 445.956C60.6748 439.118 72.3817 430.004 66.5293 415.318C60.6748 400.633 56.8583 365.184 64.62 354.083C72.3817 342.978 81.7062 340.892 81.7062 340.892C81.7062 340.892 85.9456 333.125 103.104 336.837C110.907 338.529 110.443 342.716 110.443 342.716C106.615 340.645 102.284 339.348 97.6524 339.049C95.0761 338.882 92.5521 339.034 90.124 339.47C90.124 339.47 95.8804 348.647 92.4867 357.635C89.0973 366.62 82.6827 381.559 84.5419 390.435C84.5419 390.435 73.6437 391.246 76.7279 397.55C79.3587 402.919 91.6475 398.512 91.6475 398.512C91.6475 398.512 105.482 404.023 107.875 417.741C107.452 419.057 107.162 420.41 107.014 421.802C105.27 438.238 120.526 447.424 135.118 451.869Z" fill="#212121"/>
<path d="M117.104 373.093L117.088 373.021C117.088 373.021 117.812 367.192 126.648 368.788H126.653C126.683 369.797 126.668 370.818 126.602 371.848C126.522 373.13 126.358 374.39 126.123 375.621H126.118C126.118 375.621 122.989 380.969 113.745 380.609C111.668 380.529 109.895 379.961 108.487 379.111V379.104C108.487 379.104 110.151 374.516 117.104 373.093Z" fill="#FF4081"/>
<path d="M118.902 349.417C116.188 349.742 112.437 350.217 109.327 349.367C109.327 349.367 111.225 344.921 113.481 344.592C115.475 345.984 117.293 347.604 118.902 349.417Z" fill="white"/>
<path d="M126.653 368.788H126.648C117.812 367.192 117.088 373.021 117.088 373.021L117.104 373.092C110.151 374.515 108.485 379.104 108.485 379.104V379.11C103.629 376.183 103.145 369.898 109.763 368.768C118.294 367.309 124.447 358.65 124.447 358.65L124.538 358.615C125.798 361.794 126.531 365.223 126.653 368.788Z" fill="#212121"/>
<path d="M122.973 384.467C122.973 384.467 123.651 389.916 124.791 391.48C125.428 392.345 128.318 389.743 132.11 386.015C135.168 384.922 161.485 375.494 173.696 369.638C175.126 368.951 176.566 368.24 178.003 367.526C178.907 367.754 187.556 370.129 185.424 379.102C146.252 387.843 113.819 399.161 107.879 417.737C105.486 404.018 91.6519 398.508 91.6519 398.508C91.6519 398.508 79.3653 402.915 76.7323 397.545C73.6481 391.241 84.5463 390.43 84.5463 390.43C82.6892 381.552 89.1017 366.613 92.4911 357.631C95.8869 348.643 90.1283 339.465 90.1283 339.465C92.5565 339.03 95.0805 338.878 97.6568 339.045C102.289 339.344 106.62 340.641 110.447 342.712C111.495 343.28 112.509 343.907 113.481 344.592C111.227 344.921 109.327 349.367 109.327 349.367C112.437 350.217 116.188 349.742 118.902 349.417C120.994 349.163 122.474 349.001 122.572 349.599C122.668 350.202 122.221 351.65 121.687 353.073C122.816 354.81 123.78 356.664 124.543 358.614L124.451 358.648C124.451 358.648 118.298 367.307 109.767 368.767C103.15 369.897 103.633 376.181 108.49 379.108C109.9 379.959 111.672 380.527 113.747 380.607C122.991 380.967 126.121 375.619 126.121 375.619H126.125C125.524 378.775 124.445 381.748 122.973 384.467Z" fill="white"/>
<path d="M224.035 363.562L222.529 371.701C209.906 374.015 197.354 376.441 185.422 379.104C187.556 370.131 178.907 367.756 178.001 367.529C189.581 361.775 201.114 355.688 209.314 357.941C218.239 360.392 224.035 363.562 224.035 363.562Z" fill="#212121"/>
<path d="M178.003 367.526C176.566 368.24 175.126 368.949 173.696 369.638C161.486 375.493 135.168 384.922 132.11 386.015C135.134 383.038 138.732 379.345 142.213 376.135C150.062 368.894 226.672 343.067 226.672 343.067L227.793 343.276L224.037 363.562C224.037 363.562 218.239 360.392 209.316 357.941C201.116 355.688 189.581 361.775 178.003 367.526Z" fill="white"/>
<path d="M275.766 338.535C280.413 360.396 264.09 369.639 264.09 369.639C266.294 341.599 262.333 299.725 264.055 292.493C264.289 291.506 264.483 290.361 264.631 289.095C267.002 289.14 269.369 289.129 271.66 289.045V289.095C271.66 289.095 263.521 310.284 275.766 338.524C275.766 338.531 275.766 338.531 275.766 338.535Z" fill="white"/>
<path d="M107.877 417.737C113.817 399.161 146.25 387.843 185.422 379.102C197.354 376.439 209.906 374.012 222.529 371.698L224.035 363.56L227.79 343.273L236.306 297.281C236.306 297.281 234.648 291.786 232.097 290.083C229.543 288.377 228.422 285.677 228.422 285.677L228.412 285.564C228.793 285.538 229.007 285.523 229.007 285.523C229.007 285.523 231.485 285.959 235.465 286.531C235.363 282.394 235.068 266.563 236.121 259.737C236.35 258.284 236.635 257.241 236.997 256.801C239.329 253.986 240.908 259.394 240.908 259.394C240.908 259.394 240.918 254.832 245.905 254.021C246.69 253.895 247.59 253.858 248.639 253.945C256.361 254.597 259.088 259.247 259.088 259.247C259.088 259.247 262.224 257.779 263.303 257.855C263.513 257.87 263.746 258.796 263.986 260.351C264.851 266.082 265.67 280.368 264.626 289.09C264.478 290.357 264.286 291.499 264.051 292.488C262.331 299.72 266.292 341.595 264.086 369.634C264.01 370.623 263.922 371.594 263.831 372.546C263.037 380.603 261.658 387.277 259.382 391.278C252.277 403.771 206.216 422.711 170.052 431.984C170.052 431.984 185.601 452.594 157.739 455.228C153.587 455.619 144.484 454.721 135.114 451.865C120.521 447.419 105.266 438.231 107.012 421.794C107.164 420.406 107.454 419.053 107.877 417.737Z" fill="white"/>
<path d="M261.586 240.799V240.804C259.641 241.58 254.637 242.714 255.385 240.804C256.139 238.895 255.385 235.979 255.385 235.979C257.218 237.85 259.299 239.476 261.586 240.799Z" fill="white"/>
<path d="M247.246 215.028C245.306 215.676 243.484 216.121 242.394 215.976C239.168 215.546 250.334 203.923 250.334 203.923C250.334 203.923 245.622 202.474 247.738 199.486C249.85 196.494 256.655 194.752 256.655 194.752C256.655 194.752 254.105 191.4 256.655 189.958C259.205 188.52 269.064 188.125 269.064 188.125C271.309 187.568 273.661 187.269 276.082 187.269C292.024 187.269 304.943 200.121 304.943 215.976C304.943 220.148 304.047 224.11 302.439 227.688C299.747 227.172 296.499 226.862 293.053 227.206C290.087 227.506 286.965 228.291 283.931 229.861C277.462 233.202 273.944 238.125 272.194 244.429C268.366 243.913 264.777 242.651 261.581 240.799C259.295 239.478 257.213 237.852 255.38 235.978C250.336 230.808 247.226 223.752 247.226 215.976C247.23 215.659 247.237 215.34 247.246 215.028Z" fill="white"/>
<path d="M267.78 249.981L271.252 249.029C270.76 252.468 270.631 256.235 270.729 260.312H264.31L263.99 260.357C263.75 258.802 263.517 257.876 263.308 257.861C262.229 257.785 259.092 259.253 259.092 259.253C259.092 259.253 256.363 254.604 248.643 253.951C247.594 253.865 246.694 253.901 245.91 254.027L245.89 253.901C245.89 253.901 245.402 251.1 246.291 248.968C246.505 248.437 246.81 247.951 247.233 247.554C249.34 245.574 254.068 248.647 254.068 248.647C254.068 248.647 259.942 244.399 264.09 246.799C268.238 249.189 267.78 249.981 267.78 249.981Z" fill="white"/>
<path d="M246.284 248.967H246.289C245.397 251.099 245.888 253.901 245.888 253.901L245.907 254.026C240.918 254.838 240.909 259.4 240.909 259.4C240.909 259.4 239.331 253.992 236.999 256.807C236.637 257.247 236.354 258.29 236.123 259.743L235.765 259.723C235.765 259.723 229.758 256.254 226.517 255.499L227.958 255.434C227.84 251.008 237.16 252.162 237.16 252.162C234.07 250.971 233.344 247.204 236.616 248.065C239.892 248.926 246.284 248.967 246.284 248.967Z" fill="white"/>
<path d="M235.768 259.724L236.125 259.744C235.073 266.57 235.367 282.4 235.469 286.538C231.489 285.966 229.011 285.53 229.011 285.53C229.011 285.53 228.797 285.545 228.416 285.571C225.82 285.742 215.493 286.31 213.42 284.716C211.042 282.893 208.082 266.668 212.154 265.544C216.225 264.415 228.106 263.018 228.106 263.018C228.106 263.018 222.904 256.302 224.9 255.452C225.255 255.3 225.827 255.341 226.524 255.502C229.763 256.254 235.768 259.724 235.768 259.724Z" fill="white"/>
<path d="M392.892 258.249C400.542 253.341 410.732 253.094 412.284 248.289C413.435 244.735 413.367 248.642 436.783 247.363C459.759 246.107 447.936 254.994 434.675 257.126C434.42 257.167 434.172 257.206 433.917 257.243C420.368 259.157 415.776 280.619 395.697 286.594C380.04 291.254 359.349 275.094 350.986 267.745C322.145 271.011 299.45 273.305 299.45 273.305C297.593 277.781 294.692 282.157 290.182 285.145C286.333 287.693 279.391 288.775 271.66 289.044C269.369 289.131 267.002 289.14 264.63 289.094C265.674 280.374 264.855 266.088 263.99 260.355L264.31 260.309H270.729C270.633 256.232 270.76 252.465 271.252 249.026C271.485 247.421 271.797 245.886 272.198 244.429C273.948 238.125 277.466 233.202 283.936 229.861C286.97 228.291 290.091 227.506 293.057 227.206C296.503 226.861 299.751 227.172 302.443 227.688C306.769 228.507 309.666 229.861 309.666 229.861C331.314 235.382 329.608 238.474 360.759 233.148C380.747 229.73 388.275 241.909 391.069 250.386C392.458 254.614 392.678 257.921 392.678 257.921L392.892 258.249Z" fill="#FFA000"/>
<path d="M383.365 327.484C383.365 327.484 382.34 332.635 376.381 334.695C370.426 336.761 364.083 337.815 364.083 337.815V337.82C359.92 334.341 356.677 331.323 354.8 328.866C361.666 326.981 368.97 324.182 376.381 320.879C376.381 320.881 379.103 323.449 383.365 327.484Z" fill="white"/>
<path d="M354.798 328.867C356.677 331.324 359.918 334.343 364.081 337.821C366.056 339.467 368.235 341.219 370.576 343.067C374.221 345.979 364.691 362.245 333.215 367.359C305.952 371.789 293.003 364.923 290.032 363.004C286.967 358.483 284.086 353.97 281.42 349.507C279.175 345.756 277.307 342.089 275.764 338.534C275.764 338.53 275.764 338.53 275.764 338.524C263.517 310.281 271.658 289.094 271.658 289.094V289.044C279.389 288.775 286.331 287.693 290.18 285.145C294.69 282.157 297.591 277.783 299.448 273.305C299.448 273.305 322.145 271.011 350.984 267.745C359.347 275.092 380.038 291.252 395.695 286.594C415.776 280.619 420.366 259.157 433.915 257.242C434.17 257.208 434.418 257.167 434.673 257.125C439.05 256.466 443.148 255.751 446.914 255.18C451.847 254.434 461.415 255.508 479.918 255.482C510.403 255.447 536.957 258.585 542.744 262.089C552.043 267.717 525.612 271.514 512.632 275.682C499.657 279.849 484.088 288.159 474.162 289.764C464.236 291.375 458.002 284.052 458.002 284.052C458.002 284.052 467.237 276.788 443.172 286.591C427.897 292.811 401.488 309.704 376.381 320.88C368.97 324.183 361.664 326.983 354.798 328.867Z" fill="white"/>
<path d="M272.198 245.695C272.142 245.695 272.085 245.691 272.026 245.685C268.096 245.155 264.369 243.878 260.945 241.892C258.58 240.523 256.402 238.832 254.473 236.861C248.981 231.233 245.957 223.815 245.957 215.976C245.957 215.648 245.962 215.314 245.973 214.987C245.997 214.289 246.583 213.736 247.287 213.764C247.989 213.788 248.54 214.371 248.516 215.071C248.505 215.371 248.501 215.676 248.501 215.976C248.501 223.153 251.269 229.945 256.296 235.098C258.061 236.902 260.055 238.453 262.222 239.706C265.358 241.525 268.77 242.692 272.366 243.178C273.061 243.271 273.55 243.911 273.456 244.602C273.373 245.234 272.826 245.695 272.198 245.695Z" fill="#212121"/>
<path d="M302.441 228.954C302.266 228.954 302.09 228.92 301.922 228.844C301.281 228.558 300.993 227.809 301.279 227.172C302.868 223.637 303.672 219.87 303.672 215.976C303.672 200.844 291.296 188.533 276.084 188.533C273.82 188.533 271.562 188.808 269.373 189.35C268.689 189.52 268 189.108 267.83 188.429C267.66 187.75 268.074 187.063 268.756 186.893C271.148 186.301 273.613 186 276.087 186C292.702 186 306.22 199.447 306.22 215.974C306.22 220.226 305.34 224.342 303.605 228.204C303.393 228.675 302.927 228.954 302.441 228.954Z" fill="#212121"/>
<path d="M104.104 400.814C103.548 400.814 103.04 400.45 102.881 399.892C102.69 399.22 103.082 398.52 103.758 398.329C111.456 396.156 118.052 390.884 121.853 383.865C123.291 381.204 124.309 378.35 124.874 375.383C125.101 374.189 125.255 372.972 125.332 371.766C125.395 370.797 125.41 369.808 125.38 368.826C125.264 365.467 124.584 362.184 123.355 359.076C122.633 357.235 121.711 355.448 120.615 353.761C120.233 353.173 120.401 352.39 120.992 352.011C121.58 351.631 122.369 351.798 122.751 352.386C123.941 354.216 124.941 356.157 125.724 358.154C127.058 361.526 127.797 365.092 127.923 368.746C127.956 369.81 127.938 370.879 127.871 371.929C127.788 373.237 127.62 374.559 127.372 375.856C126.759 379.076 125.656 382.175 124.091 385.066C119.965 392.686 112.807 398.407 104.451 400.766C104.335 400.799 104.22 400.814 104.104 400.814Z" fill="#212121"/>
<path d="M118.902 350.683C118.549 350.683 118.2 350.537 117.947 350.255C116.402 348.514 114.654 346.957 112.749 345.628C111.814 344.971 110.837 344.366 109.837 343.824C106.044 341.772 101.918 340.59 97.5718 340.308C95.1481 340.15 92.7199 340.287 90.3529 340.712C89.6597 340.835 88.9993 340.378 88.8751 339.69C88.7508 339.003 89.2107 338.344 89.9017 338.22C92.4736 337.758 95.111 337.611 97.7375 337.782C102.454 338.086 106.936 339.372 111.053 341.599C112.138 342.186 113.202 342.846 114.213 343.557C116.277 344.997 118.176 346.688 119.854 348.579C120.319 349.104 120.268 349.904 119.743 350.366C119.501 350.578 119.2 350.683 118.902 350.683Z" fill="#212121"/>
<path d="M235.866 287.859C235.803 287.859 235.739 287.855 235.674 287.844L235.273 287.787C231.884 287.299 229.547 286.905 228.941 286.801L228.496 286.831C222.446 287.232 214.782 287.364 212.637 285.714C210.2 283.845 208.097 273.282 209.126 268.056C209.538 265.955 210.442 264.699 211.809 264.322C214.898 263.465 222.16 262.483 225.802 262.023C224.41 259.993 222.825 257.226 223.243 255.626C223.405 255.01 223.812 254.533 224.392 254.286C224.994 254.03 225.761 254.025 226.805 254.268C230.194 255.058 236.151 258.484 236.404 258.629C237.012 258.981 237.219 259.755 236.866 260.36C236.513 260.965 235.735 261.171 235.127 260.819C235.068 260.785 229.246 257.437 226.227 256.734C226.038 256.691 225.885 256.662 225.763 256.645C226.055 257.731 227.465 260.119 229.109 262.244C229.388 262.604 229.451 263.088 229.272 263.508C229.096 263.929 228.703 264.222 228.25 264.274C228.132 264.287 216.421 265.673 212.489 266.763C212.243 266.831 211.872 267.321 211.635 268.479C210.599 273.531 213.065 282.819 214.194 283.713C215.105 284.413 220.249 284.842 228.326 284.307L228.915 284.268C229.02 284.261 229.124 284.266 229.227 284.283C229.251 284.287 231.735 284.723 235.646 285.285L236.051 285.341C236.746 285.445 237.224 286.089 237.121 286.781C237.028 287.408 236.485 287.859 235.866 287.859Z" fill="#212121"/>
<path d="M267.329 290.387C266.44 290.387 265.531 290.378 264.604 290.361C263.902 290.348 263.342 289.769 263.355 289.071C263.368 288.381 263.935 287.828 264.628 287.828C264.637 287.828 264.646 287.828 264.652 287.828C267.122 287.876 269.463 287.859 271.61 287.778C280.219 287.479 286.231 286.239 289.476 284.09C293.247 281.592 296.207 277.801 298.273 272.82C301.747 264.456 301.495 255.578 301.49 255.489C301.466 254.791 302.018 254.205 302.72 254.181C303.417 254.16 304.01 254.704 304.034 255.402C304.047 255.786 304.317 264.898 300.625 273.785C298.362 279.237 295.084 283.413 290.886 286.195C287.242 288.607 280.788 289.99 271.703 290.307C270.317 290.361 268.855 290.387 267.329 290.387Z" fill="#212121"/>
<path d="M155.629 456.584C150.644 456.584 142.621 455.48 134.746 453.079C128.749 451.253 120.299 447.894 114.083 442.267C107.714 436.501 104.911 429.57 105.75 421.666C105.902 420.215 106.21 418.762 106.663 417.353C113.37 396.381 152.128 385.237 185.143 377.868C195.368 375.584 206.591 373.34 221.436 370.612L234.998 297.363C234.477 295.771 233.056 292.25 231.389 291.137C228.546 289.24 227.297 286.288 227.247 286.163C226.979 285.516 227.289 284.777 227.938 284.51C228.588 284.243 229.331 284.551 229.599 285.195C229.628 285.26 230.643 287.589 232.808 289.036C235.654 290.936 237.343 296.313 237.527 296.919C237.585 297.112 237.596 297.315 237.559 297.513L223.78 371.928C223.684 372.444 223.278 372.85 222.759 372.943C207.519 375.738 196.092 378.017 185.701 380.338C163.534 385.284 146.856 390.369 134.715 395.884C120.14 402.505 111.757 409.778 109.089 418.12C108.688 419.367 108.418 420.649 108.282 421.93C106.454 439.155 124.545 447.324 135.491 450.659C144.369 453.365 153.349 454.374 157.623 453.973C165.72 453.207 170.699 450.854 172.418 446.979C175.112 440.912 169.099 432.829 169.038 432.749C168.615 432.19 168.728 431.396 169.291 430.977C169.853 430.559 170.651 430.67 171.071 431.229C171.357 431.609 178.035 440.595 174.746 448.003C172.626 452.778 166.945 455.634 157.863 456.493C157.213 456.553 156.463 456.584 155.629 456.584Z" fill="#212121"/>
<path d="M136.535 438.76C135.051 438.76 133.704 438.693 132.5 438.556C131.803 438.478 131.3 437.852 131.38 437.155C131.459 436.461 132.084 435.958 132.788 436.041C140.123 436.867 153.246 434.993 169.74 430.76C187.809 426.128 208.507 418.996 225.105 411.684C243.362 403.641 255.143 396.174 258.281 390.658C260.282 387.14 261.725 381.005 262.571 372.425C262.662 371.483 262.747 370.518 262.824 369.538C264.051 353.923 263.36 334.07 262.806 318.118C262.351 305.016 262.021 295.548 262.819 292.197C263.042 291.261 263.227 290.165 263.368 288.945C264.354 280.704 263.65 266.617 262.732 260.539C262.645 259.969 262.569 259.559 262.505 259.266C261.771 259.483 260.655 259.916 259.635 260.394C259.04 260.673 258.327 260.452 257.993 259.886C257.898 259.726 255.435 255.79 248.534 255.206C247.645 255.133 246.829 255.154 246.112 255.271C242.235 255.9 242.182 259.255 242.182 259.398C242.18 260.027 241.714 260.561 241.088 260.649C240.46 260.738 239.865 260.355 239.689 259.749C239.368 258.663 238.719 257.477 238.342 257.271C238.285 257.303 238.163 257.392 237.984 257.607C237.96 257.64 237.679 258.056 237.385 259.936C236.321 266.828 236.663 283.276 236.744 286.503L236.77 287.507C236.79 288.205 236.236 288.788 235.532 288.808C235.521 288.808 235.508 288.808 235.497 288.808C234.811 288.808 234.244 288.264 234.227 287.576L234.2 286.563C234.12 283.3 233.775 266.654 234.872 259.548C235.162 257.709 235.515 256.616 236.018 256.002C237.075 254.725 238.128 254.63 238.826 254.773C239.562 254.925 240.164 255.406 240.646 256.002C241.531 254.547 243.096 253.196 245.707 252.771C246.629 252.622 247.653 252.593 248.75 252.682C254.944 253.205 258.203 256.137 259.506 257.674C260.72 257.156 262.429 256.523 263.401 256.59C264.654 256.681 264.92 258.006 265.252 260.159C266.078 265.633 267 280.03 265.899 289.239C265.746 290.554 265.544 291.746 265.3 292.778C264.58 295.799 264.938 306.102 265.354 318.029C265.91 334.044 266.605 353.975 265.365 369.731C265.289 370.727 265.202 371.707 265.108 372.665C264.214 381.728 262.708 388.018 260.5 391.9C256.136 399.572 239.405 408.151 226.14 413.995C209.422 421.36 188.576 428.544 170.381 433.209C156.235 436.841 144.46 438.76 136.535 438.76Z" fill="#212121"/>
<path d="M114.636 381.891C114.329 381.891 114.017 381.885 113.694 381.872C111.539 381.787 109.509 381.206 107.827 380.191C104.788 378.359 103.108 375.236 103.644 372.419C104.132 369.862 106.284 368.075 109.549 367.52C117.467 366.167 123.352 358.003 123.409 357.92C123.814 357.35 124.61 357.213 125.183 357.617C125.756 358.02 125.894 358.811 125.488 359.382C125.225 359.753 118.928 368.487 109.98 370.016C107.79 370.389 106.427 371.411 106.146 372.892C105.811 374.648 107.046 376.758 109.148 378.027C110.462 378.821 112.07 379.276 113.797 379.343C122.188 379.671 124.994 375.03 125.022 374.982C125.375 374.377 126.155 374.173 126.761 374.525C127.369 374.876 127.574 375.652 127.221 376.255C127.08 376.494 123.81 381.891 114.636 381.891Z" fill="#212121"/>
<path d="M108.487 380.371C108.343 380.371 108.197 380.347 108.056 380.295C107.395 380.058 107.053 379.332 107.291 378.675C107.369 378.46 109.283 373.401 116.848 371.853C118.374 371.54 120.059 371.395 121.838 371.41C122.539 371.419 123.104 371.991 123.095 372.69C123.087 373.384 122.52 373.941 121.822 373.941C121.818 373.941 121.811 373.941 121.807 373.941C120.201 373.919 118.708 374.054 117.358 374.331C111.175 375.598 109.697 379.492 109.682 379.531C109.496 380.05 109.008 380.371 108.487 380.371Z" fill="#212121"/>
<path d="M117.09 374.288C117.038 374.288 116.986 374.285 116.933 374.277C116.236 374.192 115.741 373.559 115.826 372.865C115.839 372.765 116.153 370.423 118.389 368.788C120.41 367.309 123.265 366.891 126.877 367.541C127.568 367.667 128.028 368.324 127.901 369.014C127.775 369.701 127.112 370.159 126.421 370.033C123.568 369.517 121.312 369.792 119.898 370.827C118.555 371.809 118.355 373.162 118.352 373.175C118.272 373.817 117.725 374.288 117.09 374.288Z" fill="#212121"/>
<path d="M120.214 357.892C120.037 357.892 119.858 357.855 119.686 357.777C119.048 357.486 118.764 356.736 119.056 356.1C119.065 356.083 119.85 354.361 120.493 352.635C120.887 351.585 121.092 350.898 121.199 350.462C120.571 350.492 119.673 350.601 119.056 350.675L118.882 350.696C116.094 351.03 112.278 351.488 108.991 350.59C108.638 350.492 108.343 350.25 108.182 349.92C108.023 349.59 108.012 349.211 108.156 348.875C108.52 348.022 110.477 343.753 113.296 343.343C113.993 343.241 114.636 343.72 114.738 344.412C114.841 345.104 114.359 345.748 113.664 345.847C112.936 345.954 111.959 347.179 111.216 348.452C113.69 348.768 116.454 348.437 118.575 348.183L118.749 348.161C121.419 347.838 123.533 347.582 123.828 349.4C123.91 349.918 123.878 350.852 122.877 353.518C122.204 355.328 121.406 357.076 121.373 357.148C121.16 357.616 120.698 357.892 120.214 357.892Z" fill="#212121"/>
<path d="M93.8794 365.618C93.79 365.618 93.7006 365.609 93.6113 365.589C92.9247 365.442 92.4866 364.77 92.6348 364.087C93.5916 359.645 95.2634 356.82 97.6022 355.688C99.7862 354.632 101.648 355.473 101.852 355.573C102.485 355.881 102.746 356.638 102.437 357.267C102.131 357.889 101.379 358.151 100.75 357.856C100.684 357.828 99.7513 357.44 98.668 357.987C97.5826 358.533 96.0873 360.129 95.1196 364.618C94.9953 365.212 94.4679 365.618 93.8794 365.618Z" fill="#212121"/>
<path d="M102.443 363.293C102.186 363.293 101.927 363.217 101.702 363.057L101.057 362.595C100.486 362.187 100.355 361.396 100.765 360.828C101.175 360.26 101.97 360.13 102.541 360.537L103.186 360.999C103.757 361.407 103.888 362.198 103.478 362.766C103.23 363.111 102.84 363.293 102.443 363.293Z" fill="#212121"/>
<path d="M113.81 350.664C113.529 350.664 113.246 350.571 113.01 350.382L112.446 349.926C111.899 349.486 111.816 348.688 112.258 348.146C112.701 347.602 113.503 347.519 114.048 347.96L114.612 348.415C115.159 348.855 115.242 349.653 114.8 350.195C114.549 350.503 114.181 350.664 113.81 350.664Z" fill="#212121"/>
<path d="M125.153 392.913C125.101 392.913 125.05 392.911 125 392.906C124.497 392.865 124.057 392.624 123.764 392.227C122.494 390.482 121.831 385.585 121.711 384.62C121.626 383.926 122.121 383.295 122.819 383.208C123.509 383.124 124.15 383.616 124.237 384.31C124.462 386.119 124.979 388.845 125.528 390.174C126.478 389.595 128.385 387.899 131.217 385.115C132.056 384.288 132.941 383.406 133.856 382.493C136.184 380.173 138.821 377.54 141.35 375.207C144.728 372.088 160.071 365.524 186.948 355.696C206.866 348.412 226.073 341.933 226.264 341.868C226.931 341.642 227.653 341.998 227.877 342.661C228.102 343.323 227.747 344.043 227.08 344.266C226.888 344.331 207.709 350.802 187.82 358.075C154.739 370.171 145.23 375.076 143.078 377.063C140.585 379.362 138.078 381.862 135.657 384.28C134.739 385.197 133.85 386.082 133.006 386.915C128.344 391.497 126.506 392.913 125.153 392.913Z" fill="#212121"/>
<path d="M270.727 261.576H264.308C263.606 261.576 263.035 261.01 263.035 260.309C263.035 259.611 263.604 259.043 264.308 259.043H270.727C271.429 259.043 272 259.609 272 260.309C272 261.01 271.429 261.576 270.727 261.576Z" fill="#212121"/>
<path d="M338.291 332.675C337.712 332.675 337.145 332.662 336.587 332.638C335.885 332.608 335.34 332.016 335.371 331.318C335.401 330.619 336.011 330.088 336.698 330.108C341.713 330.327 347.69 329.496 354.46 327.644C360.8 325.905 367.799 323.314 375.86 319.725C388.508 314.093 401.63 306.839 413.204 300.438C424.91 293.963 435.022 288.372 442.712 285.41C451.112 282.177 457.841 282.764 458.122 282.79C458.453 282.821 458.758 282.981 458.972 283.233C459.207 283.508 464.894 289.985 473.957 288.513C479.633 287.596 487.248 284.408 495.313 281.034C500.976 278.664 506.83 276.213 512.242 274.476C515.625 273.39 519.782 272.36 524.185 271.269C528.973 270.083 533.923 268.857 537.642 267.582C543.067 265.724 543.392 264.566 543.411 264.44C543.429 264.321 543.226 263.861 542.084 263.169C536.933 260.051 511.717 256.701 479.92 256.744C471.653 256.759 465.426 256.523 460.432 256.336C454.351 256.109 450.332 255.959 447.101 256.43C445.164 256.711 443.154 257.041 441.025 257.392C439.041 257.718 436.988 258.054 434.865 258.375C434.167 258.481 433.522 258.004 433.415 257.312C433.311 256.62 433.788 255.976 434.483 255.872C436.589 255.556 438.633 255.22 440.608 254.896C442.749 254.545 444.771 254.213 446.731 253.927C450.194 253.422 454.305 253.576 460.526 253.808C465.5 253.994 471.673 254.231 479.916 254.213C480.079 254.213 480.249 254.213 480.413 254.213C509.487 254.213 537.092 257.184 543.405 261.007C545.29 262.148 546.14 263.432 545.927 264.824C545.371 268.454 537.535 270.573 524.797 273.728C520.438 274.808 516.32 275.827 513.02 276.888C507.713 278.592 501.909 281.021 496.296 283.371C488.09 286.806 480.339 290.051 474.362 291.016C465.14 292.512 458.974 286.908 457.409 285.288C455.798 285.226 450.22 285.234 443.625 287.774C436.101 290.671 426.059 296.222 414.435 302.652C402.815 309.079 389.644 316.364 376.895 322.039C368.717 325.682 361.598 328.314 355.131 330.088C348.852 331.808 343.195 332.675 338.291 332.675Z" fill="#212121"/>
<path d="M299.448 274.569C298.803 274.569 298.249 274.084 298.184 273.431C298.112 272.735 298.622 272.115 299.322 272.043C299.548 272.019 322.341 269.712 350.842 266.485C351.553 266.405 352.172 266.906 352.25 267.6C352.328 268.294 351.827 268.922 351.13 269.001C322.611 272.229 299.806 274.539 299.577 274.563C299.535 274.569 299.492 274.569 299.448 274.569Z" fill="#212121"/>
<path d="M367.752 440.881C367.534 440.881 367.316 440.826 367.113 440.709C352.834 432.462 338.42 421.047 324.268 406.776C318.145 400.607 312.116 393.928 306.349 386.925C303.637 383.636 300.972 380.262 298.426 376.898C295.178 372.618 292 368.181 288.975 363.714C285.897 359.173 282.987 354.612 280.324 350.158C278.136 346.502 276.209 342.759 274.594 339.038C274.315 338.396 274.611 337.65 275.256 337.375C275.901 337.097 276.651 337.394 276.928 338.036C278.5 341.657 280.376 345.301 282.508 348.863C285.145 353.276 288.031 357.798 291.083 362.3C294.082 366.73 297.234 371.13 300.455 375.376C302.979 378.713 305.623 382.059 308.313 385.323C314.032 392.264 320.007 398.885 326.075 405C340.068 419.111 354.303 430.389 368.386 438.521C368.994 438.873 369.201 439.647 368.848 440.252C368.617 440.653 368.19 440.881 367.752 440.881Z" fill="#212121"/>
<path d="M275.766 339.79C275.274 339.79 274.805 339.504 274.598 339.025C262.289 310.636 270.13 289.525 270.47 288.641C270.72 287.988 271.457 287.663 272.113 287.91C272.769 288.159 273.098 288.892 272.848 289.545C272.743 289.823 265.077 310.677 276.935 338.023C277.214 338.665 276.915 339.411 276.27 339.686C276.106 339.758 275.934 339.79 275.766 339.79Z" fill="#212121"/>
<path d="M341.505 434.241C341.117 434.241 340.733 434.065 340.482 433.731C334.628 425.898 332.08 414.414 331.973 413.93C331.825 413.247 332.261 412.573 332.947 412.425C333.638 412.278 334.312 412.712 334.46 413.395C334.484 413.507 337.004 424.836 342.525 432.222C342.943 432.784 342.828 433.575 342.263 433.994C342.034 434.158 341.768 434.241 341.505 434.241Z" fill="#212121"/>
<path d="M371.982 467.27C353.274 467.27 338.076 464.123 337.906 464.086C337.529 464.006 337.208 463.761 337.034 463.418C325.022 439.786 323.912 406.258 323.904 405.924C323.884 405.226 324.436 404.643 325.137 404.621C325.865 404.608 326.426 405.15 326.447 405.85C326.456 406.178 327.535 438.636 339.03 461.727C342.433 462.382 359.883 465.498 379.378 464.563C392.024 463.956 403.044 461.788 412.127 458.119C423.372 453.575 431.661 446.701 436.766 437.687C439.296 433.217 440.469 428.403 440.253 423.372C439.172 397.885 403.831 370.488 378.029 350.483C375.117 348.226 372.366 346.092 369.79 344.058C367.255 342.056 365.121 340.335 363.268 338.791C358.588 334.881 355.576 331.971 353.789 329.633C353.621 329.412 353.529 329.143 353.529 328.865C353.529 328.167 354.098 327.597 354.802 327.597C355.245 327.597 355.635 327.82 355.862 328.16C357.538 330.336 360.415 333.098 364.905 336.85C366.738 338.379 368.855 340.087 371.372 342.074C373.94 344.101 376.688 346.231 379.594 348.484C405.789 368.792 441.663 396.606 442.797 423.262C443.034 428.77 441.751 434.039 438.985 438.927C433.588 448.46 424.865 455.709 413.06 460.474C403.701 464.249 392.393 466.476 379.45 467.094C376.917 467.216 374.419 467.27 371.982 467.27Z" fill="#212121"/>
<path d="M441.552 424.585C441.256 424.585 440.959 424.483 440.717 424.275C440.187 423.815 440.131 423.017 440.593 422.488C446.214 416.054 447.169 392.948 428.858 373.544C419.206 363.315 393.214 338.568 382.486 328.401C378.227 324.368 375.505 321.8 375.505 321.8C374.994 321.319 374.973 320.519 375.457 320.011C375.94 319.504 376.747 319.482 377.255 319.964C377.255 319.964 379.979 322.531 384.241 326.569C394.984 336.748 421.015 361.535 430.713 371.811C438.873 380.459 444.353 391.196 446.142 402.041C447.679 411.359 446.288 419.829 442.513 424.149C442.26 424.437 441.907 424.585 441.552 424.585Z" fill="#212121"/>
<path d="M131.82 387.384C131.295 387.384 130.805 387.058 130.619 386.538C130.386 385.879 130.735 385.154 131.398 384.925L131.685 384.823C136.541 383.086 161.398 374.13 173.142 368.498C174.565 367.813 176.002 367.106 177.432 366.394L179.195 365.516C190.614 359.826 201.403 354.452 209.653 356.719C218.616 359.18 224.405 362.318 224.647 362.45C225.264 362.786 225.488 363.556 225.15 364.17C224.813 364.781 224.039 365.007 223.422 364.671C223.365 364.64 217.631 361.537 208.975 359.16C201.663 357.15 190.819 362.554 180.333 367.78L178.567 368.658C177.126 369.374 175.681 370.085 174.247 370.777C162.388 376.463 137.422 385.46 132.537 387.206L132.239 387.31C132.102 387.362 131.96 387.384 131.82 387.384Z" fill="#212121"/>
<path d="M299.45 377.401C299.407 377.401 299.359 377.399 299.317 377.395L264.99 373.936C264.29 373.864 263.783 373.244 263.852 372.548C263.924 371.852 264.543 371.344 265.247 371.416L299.561 374.873C300.211 374.931 300.723 375.473 300.723 376.135C300.719 376.835 300.152 377.401 299.45 377.401Z" fill="#212121"/>
<path d="M338.17 464.114C338.015 464.114 337.858 464.086 337.705 464.025C337.553 463.967 322.3 458.055 306.072 456.164L304.886 456.026C303.263 455.837 301.39 455.618 299.309 455.384C259.938 450.914 232.234 449.952 216.966 452.519C193.02 456.542 158.105 456.492 157.741 456.496C157.039 456.494 156.47 455.926 156.472 455.228C156.474 454.529 157.043 453.966 157.745 453.966C157.754 453.968 157.787 453.966 157.863 453.966C160.079 453.966 193.493 453.896 216.543 450.023C232.047 447.417 259.99 448.373 299.596 452.868C301.68 453.102 303.557 453.321 305.183 453.51L306.369 453.649C322.936 455.581 338.481 461.607 338.636 461.668C339.29 461.924 339.612 462.659 339.355 463.31C339.157 463.809 338.677 464.114 338.17 464.114Z" fill="#212121"/>
<path d="M299.45 455.393C299.35 455.393 299.248 455.382 299.147 455.356C298.465 455.189 298.047 454.504 298.214 453.825C298.241 453.721 300.786 443.325 303.016 429.837C305.067 417.426 307.262 399.787 306.068 386.232C306.063 386.195 306.063 386.158 306.063 386.121C306.063 385.423 306.632 384.853 307.336 384.853C308.014 384.853 308.568 385.377 308.607 386.041C309.819 399.859 307.602 417.717 305.527 430.268C303.282 443.848 300.714 454.324 300.688 454.428C300.542 455.007 300.023 455.393 299.45 455.393Z" fill="#212121"/>
<path d="M185.424 380.37C185.328 380.37 185.228 380.359 185.13 380.335C184.446 380.175 184.023 379.492 184.184 378.811C185.967 371.303 179.195 369.139 177.722 368.762L177.68 368.753C176.991 368.619 176.542 367.953 176.677 367.268C176.813 366.582 177.482 366.133 178.171 366.268L178.245 366.283C178.269 366.287 178.29 366.292 178.314 366.298C179.031 366.478 181.538 367.213 183.689 369.081C185.74 370.861 187.92 374.096 186.662 379.394C186.523 379.978 186 380.37 185.424 380.37Z" fill="#212121"/>
<path d="M264.09 370.904C263.647 370.904 263.218 370.674 262.983 370.264C262.636 369.657 262.848 368.885 263.458 368.538C264.096 368.174 278.909 359.443 274.52 338.797C274.502 338.71 274.491 338.623 274.491 338.534C274.491 337.836 275.06 337.264 275.764 337.264C276.403 337.264 276.932 337.728 277.022 338.337C279.489 350.036 276.043 358.207 272.715 363.004C269.092 368.226 264.892 370.64 264.716 370.739C264.519 370.85 264.304 370.904 264.09 370.904Z" fill="#212121"/>
<path d="M389.735 288.688C383.953 288.688 377.346 286.715 370.003 282.786C361.923 278.462 354.743 272.735 350.144 268.692C347.78 266.613 346.404 265.247 346.345 265.19C345.848 264.696 345.848 263.893 346.345 263.399C346.842 262.905 347.649 262.905 348.146 263.399C348.159 263.412 349.53 264.774 351.829 266.795C359.89 273.875 380.263 289.864 395.333 285.379C405.588 282.328 411.759 274.972 417.203 268.482C422.175 262.555 426.872 256.956 433.738 255.987C433.956 255.957 434.167 255.922 434.381 255.889L434.475 255.874C442.96 254.51 448.54 250.884 448.523 249.781C448.518 249.781 447.455 248.046 436.853 248.625C424.693 249.29 418.888 248.579 415.771 248.195C414.895 248.087 414.062 247.985 413.744 248.022C413.698 248.111 413.62 248.293 413.498 248.675C412.408 252.045 408.315 253.417 403.574 255.007C400.352 256.087 396.702 257.31 393.582 259.311C390.267 261.428 388.044 264.119 386.782 267.541C386.54 268.196 385.808 268.532 385.149 268.293C384.489 268.053 384.151 267.324 384.393 266.669C385.854 262.712 388.408 259.608 392.205 257.184C395.588 255.013 399.398 253.736 402.761 252.608C406.848 251.238 410.379 250.054 411.074 247.9C411.955 245.177 413.249 245.335 416.083 245.684C419.124 246.057 424.782 246.751 436.715 246.098C446.19 245.58 450.746 246.667 451.055 249.514C451.491 253.53 441.942 257.24 434.882 258.377L434.789 258.392C434.558 258.429 434.329 258.466 434.098 258.498C428.202 259.331 424.012 264.325 419.158 270.108C413.485 276.872 407.053 284.538 396.063 287.808C394.079 288.394 391.967 288.688 389.735 288.688Z" fill="#212121"/>
<path d="M270.873 265.561C270.199 265.561 269.639 265.036 269.604 264.362C269.53 262.955 269.48 261.599 269.454 260.335C269.347 255.864 269.524 252.105 269.99 248.848C270.237 247.155 270.566 245.556 270.969 244.095C272.926 237.051 276.974 232.029 283.347 228.737C286.253 227.235 289.476 226.296 292.927 225.949C296.052 225.636 299.335 225.803 302.683 226.447C306.682 227.206 309.49 228.397 310.089 228.664C314.352 229.752 317.663 230.735 320.588 231.6C332.321 235.074 335.861 236.123 360.543 231.901C381.771 228.271 389.537 241.677 392.279 249.991C393.702 254.324 393.938 257.696 393.949 257.839C393.994 258.537 393.465 259.14 392.763 259.186C392.07 259.227 391.457 258.704 391.409 258.006C391.407 257.974 391.178 254.788 389.862 250.778C386.825 241.571 379.349 231.251 360.975 234.395C335.706 238.717 331.713 237.533 319.863 234.024C316.935 233.157 313.618 232.174 309.348 231.086C309.272 231.066 309.195 231.038 309.124 231.006C309.097 230.993 306.301 229.707 302.203 228.93C299.095 228.334 296.063 228.178 293.184 228.466C290.056 228.781 287.142 229.629 284.522 230.984C278.731 233.974 275.206 238.355 273.425 244.767C273.05 246.127 272.743 247.623 272.51 249.21C272.063 252.324 271.895 255.946 272 260.281C272.024 261.523 272.074 262.851 272.146 264.23C272.183 264.928 271.645 265.524 270.943 265.561C270.919 265.561 270.895 265.561 270.873 265.561Z" fill="#212121"/>
<path d="M293.055 228.473C292.456 228.473 291.922 228.05 291.806 227.441C291.676 226.753 292.131 226.092 292.82 225.962C294.511 225.643 296.02 222.236 295.982 218.812C295.961 216.839 295.405 215.371 294.629 215.243C291.839 214.783 290.366 220.022 290.352 220.076C290.174 220.753 289.474 221.156 288.796 220.976C288.116 220.799 287.711 220.105 287.892 219.428C288.635 216.628 290.978 212.072 295.047 212.745C297.19 213.1 298.491 215.358 298.528 218.786C298.574 222.987 296.754 227.801 293.293 228.451C293.212 228.464 293.134 228.473 293.055 228.473Z" fill="#212121"/>
<path d="M260.988 232.535C260.84 232.535 260.69 232.509 260.541 232.454C259.885 232.209 259.552 231.487 259.796 230.832C259.822 230.761 262.538 223.735 270.638 225.986C271.313 226.174 271.71 226.872 271.52 227.545C271.331 228.217 270.631 228.612 269.953 228.423C264.247 226.836 262.377 231.212 262.183 231.717C261.987 232.222 261.503 232.535 260.988 232.535Z" fill="#212121"/>
<path d="M256.819 243.115C255.901 243.115 255.077 242.935 254.569 242.436C254.022 241.898 253.887 241.135 254.199 240.344C254.691 239.092 254.321 236.945 254.153 236.293C253.979 235.616 254.388 234.924 255.068 234.751C255.746 234.577 256.442 234.985 256.618 235.662C256.697 235.967 257.309 238.472 256.784 240.593C257.821 240.571 259.798 240.151 261.112 239.628C261.764 239.368 262.505 239.682 262.767 240.333C263.028 240.981 262.712 241.718 262.058 241.979C262.017 241.994 259.118 243.115 256.819 243.115Z" fill="#212121"/>
<path d="M265.642 235.085C265.533 235.085 265.424 235.072 265.313 235.041C264.637 234.861 264.234 234.178 264.41 233.506C264.487 233.213 264.933 231.726 266.198 231.194C266.688 230.988 267.468 230.856 268.412 231.394C269.023 231.741 269.234 232.515 268.885 233.122C268.536 233.729 267.758 233.94 267.148 233.593C267.146 233.591 267.144 233.591 267.141 233.588C267.046 233.714 266.926 233.957 266.871 234.152C266.714 234.714 266.2 235.085 265.642 235.085Z" fill="#212121"/>
<path d="M242.858 217.268C242.631 217.268 242.422 217.255 242.226 217.229C241.463 217.127 240.89 216.682 240.652 216.012C240.317 215.058 240.334 213.584 244.841 208.171C246.077 206.685 247.328 205.295 248.209 204.337C247.363 203.83 246.459 203.062 246.093 201.988C245.842 201.26 245.746 200.106 246.703 198.755C248.416 196.326 252.47 194.73 254.761 193.989C254.401 193.171 254.116 192.128 254.327 191.105C254.526 190.15 255.114 189.372 256.032 188.854C258.774 187.307 267.978 186.898 269.02 186.856C269.716 186.83 270.315 187.372 270.343 188.071C270.372 188.769 269.825 189.359 269.123 189.387C265.43 189.535 258.95 190.12 257.289 191.057C256.939 191.256 256.856 191.451 256.821 191.616C256.668 192.349 257.344 193.551 257.675 193.987C257.932 194.325 258.002 194.767 257.863 195.166C257.723 195.565 257.392 195.871 256.98 195.975C255.212 196.428 250.293 198.076 248.787 200.212C248.375 200.794 248.473 201.078 248.503 201.171C248.737 201.852 250.06 202.509 250.716 202.711C251.136 202.841 251.461 203.177 251.572 203.602C251.683 204.027 251.566 204.478 251.261 204.794C247.821 208.375 244.14 212.835 243.276 214.713C243.939 214.65 245.042 214.429 246.847 213.826C250.526 212.593 254.717 210.554 254.759 210.532C255.391 210.225 256.152 210.483 256.461 211.111C256.771 211.738 256.511 212.497 255.879 212.805C255.703 212.892 251.5 214.937 247.658 216.225C245.548 216.93 243.998 217.268 242.858 217.268ZM242.564 214.72C242.566 214.72 242.566 214.72 242.564 214.72C242.566 214.72 242.566 214.72 242.564 214.72Z" fill="#212121"/>
<path d="M245.885 255.163C245.277 255.163 244.741 254.729 244.634 254.116C244.613 253.986 244.094 250.924 245.116 248.48C245.406 247.758 245.827 247.131 246.361 246.63C248.61 244.518 252.405 246.242 254.035 247.15C255.864 246.018 260.803 243.431 264.731 245.704C266.152 246.524 267.654 247.484 268.471 248.478L270.914 247.807C271.592 247.623 272.292 248.018 272.479 248.692C272.667 249.367 272.268 250.063 271.59 250.249L268.12 251.201C267.621 251.338 267.091 251.162 266.775 250.755C266.623 250.559 266.535 250.329 266.516 250.095C266.328 249.859 265.653 249.161 263.456 247.894C260.116 245.962 254.872 249.633 254.82 249.67C254.393 249.98 253.817 249.993 253.377 249.707C251.805 248.692 249.046 247.597 248.111 248.473C247.847 248.72 247.634 249.044 247.477 249.436C246.736 251.208 247.143 253.66 247.148 253.684C247.265 254.372 246.801 255.027 246.108 255.146C246.029 255.159 245.957 255.163 245.885 255.163ZM266.675 249.349C266.653 249.386 266.636 249.423 266.618 249.46C266.636 249.421 266.655 249.384 266.675 249.349Z" fill="#212121"/>
<path d="M227.96 256.698C227.274 256.698 226.707 256.154 226.689 255.464C226.659 254.306 227.093 253.287 227.947 252.517C229.331 251.268 231.668 250.865 233.671 250.774C233.222 249.945 233.074 249.058 233.333 248.267C233.677 247.209 234.808 246.278 236.945 246.84C240.027 247.651 246.232 247.699 246.293 247.699C246.995 247.703 247.561 248.273 247.557 248.974C247.553 249.67 246.984 250.232 246.284 250.232C246.282 250.232 246.278 250.232 246.276 250.232C246.007 250.229 239.682 250.18 236.293 249.288C236.06 249.228 235.885 249.206 235.77 249.204C235.872 249.62 236.406 250.511 237.622 250.98C238.222 251.212 238.553 251.849 238.396 252.47C238.239 253.09 237.638 253.493 237.006 253.417C234.872 253.155 230.988 253.189 229.654 254.395C229.351 254.668 229.222 254.979 229.233 255.399C229.25 256.098 228.697 256.679 227.995 256.698C227.982 256.698 227.971 256.698 227.96 256.698Z" fill="#212121"/>
<path d="M479.921 256.748C479.227 256.748 478.659 256.193 478.648 255.502C478.637 254.803 479.199 254.226 479.901 254.218C484.871 254.144 486.643 252.077 489.095 249.215C492.061 245.754 495.751 241.447 506.124 239.251C520.649 236.169 531.781 230.121 533.551 227.892C533.374 227.859 533.132 227.831 532.805 227.816C524.704 227.478 496.083 228.852 460.382 232.873C425.022 236.856 391.919 251.394 391.59 251.54C390.95 251.822 390.195 251.537 389.91 250.898C389.624 250.258 389.912 249.51 390.555 249.226C390.888 249.078 424.35 234.382 460.097 230.355C495.932 226.32 524.736 224.945 532.912 225.285C535.576 225.396 536.23 226.504 536.306 227.417C536.474 229.397 533.379 231.917 527.103 234.903C521.116 237.752 513.664 240.239 506.656 241.725C497.129 243.744 493.89 247.521 491.032 250.857C488.476 253.838 486.061 256.655 479.94 256.748C479.934 256.748 479.927 256.748 479.921 256.748Z" fill="#212121"/>
<path d="M316.188 370.094C300.226 370.094 291.93 365.739 289.339 364.065C288.846 363.749 288.587 363.545 288.559 363.523C288.009 363.087 287.918 362.291 288.356 361.745C288.792 361.201 289.59 361.107 290.141 361.539C290.143 361.541 290.337 361.691 290.723 361.938C303.729 370.334 328.232 366.884 333.012 366.108C357.01 362.209 368.371 351.614 369.896 345.852C370.123 344.995 370.077 344.288 369.783 344.052C369.236 343.614 369.149 342.818 369.587 342.271C370.027 341.727 370.827 341.638 371.376 342.076C372.039 342.605 373.048 343.885 372.357 346.496C370.603 353.125 358.787 364.486 333.424 368.606C326.894 369.671 321.166 370.094 316.188 370.094Z" fill="#212121"/>
<path d="M364.081 339.081C363.471 339.081 362.933 338.643 362.828 338.023C362.712 337.333 363.181 336.681 363.874 336.566C363.937 336.555 370.184 335.503 375.962 333.499C381.119 331.717 382.081 327.412 382.118 327.23C382.261 326.549 382.933 326.109 383.617 326.246C384.304 326.384 384.748 327.046 384.613 327.729C384.565 327.967 383.373 333.619 376.799 335.891C370.812 337.969 364.556 339.02 364.295 339.064C364.221 339.077 364.151 339.081 364.081 339.081Z" fill="#212121"/>
<path d="M79.3738 461.677C63.1769 461.677 51.7774 456.967 49.5912 451.684C49.0267 450.32 48.5515 447.638 51.712 444.986L52.5424 444.289C60.618 437.534 70.6662 429.127 65.3478 415.782C62.329 408.207 59.9162 395.508 59.1991 383.427C58.713 375.228 58.6367 360.421 63.5758 353.356C70.5812 343.333 78.7853 340.406 80.9148 339.788C82.2357 337.994 87.8287 332.233 103.376 335.594C112.197 337.506 111.735 342.631 111.711 342.847C111.635 343.541 111.009 344.045 110.307 343.966C109.619 343.891 109.117 343.281 109.178 342.596C109.187 342.418 109.22 339.449 102.836 338.066C86.9808 334.633 82.8591 341.434 82.8199 341.501C82.6433 341.809 82.336 342.041 81.9872 342.119C81.9022 342.138 73.0202 344.277 65.6661 354.798C58.4776 365.079 61.6991 399.756 67.7127 414.845C73.7089 429.888 62.4227 439.33 54.1815 446.224L53.3532 446.918C51.1409 448.774 51.7447 450.236 51.9452 450.717C53.7739 455.136 66.7014 460.421 86.2245 458.862C88.2363 458.702 90.2699 458.541 92.3057 458.381C102.345 457.591 112.725 456.776 120.678 455.794C130.994 454.521 133.645 453.369 134.325 452.853C134.316 452.844 134.305 452.838 134.297 452.829C133.76 452.376 133.695 451.578 134.148 451.044C134.604 450.511 135.406 450.446 135.942 450.897C137.182 451.942 137.08 452.981 136.91 453.508C136.33 455.297 133.579 456.709 121.681 458.22C113.577 459.248 102.866 460.089 92.5062 460.905C90.4704 461.065 88.439 461.224 86.4272 461.386C83.9903 461.586 81.6341 461.677 79.3738 461.677Z" fill="#212121"/>
<path d="M107.875 419.003C107.267 419.003 106.731 418.57 106.624 417.954C104.608 406.393 93.862 400.905 91.5952 399.868C88.936 400.755 78.4018 403.843 75.5878 398.103C74.4871 395.852 74.9361 394.204 75.505 393.217C77.0024 390.624 80.9367 389.67 83.0771 389.336C82.0875 381.067 86.691 369.142 90.1021 360.308C90.5271 359.208 90.9304 358.163 91.2965 357.189C94.4221 348.912 89.0995 340.225 89.045 340.138C88.6744 339.544 88.8575 338.763 89.4526 338.394C90.0498 338.026 90.8323 338.206 91.205 338.798C91.4535 339.195 97.2535 348.613 93.6789 358.078C93.3105 359.058 92.9029 360.108 92.4757 361.214C89.1823 369.741 84.2083 382.626 85.7864 390.175C85.8605 390.533 85.7777 390.903 85.5575 391.194C85.3374 391.485 85.0017 391.667 84.6355 391.695C83.1926 391.806 78.8181 392.552 77.7065 394.479C77.5648 394.727 77.131 395.479 77.8721 396.993C79.6115 400.54 88.3061 398.361 91.2159 397.318C91.5101 397.214 91.8306 397.218 92.1204 397.333C92.7133 397.57 106.643 403.271 109.128 417.52C109.248 418.21 108.784 418.865 108.093 418.984C108.021 418.997 107.947 419.003 107.875 419.003Z" fill="#212121"/>
<path d="M65.1561 369.191C64.5763 369.191 64.051 368.795 63.9158 368.209C63.7589 367.528 64.1861 366.847 64.8727 366.691C66.2982 366.366 67.8109 365.6 69.2734 364.861C69.5284 364.731 69.7813 364.603 70.0297 364.479C73.7003 362.653 76.767 360.309 80.0125 357.83C81.1307 356.976 82.2859 356.093 83.4694 355.232C84.0361 354.82 84.8339 354.942 85.248 355.506C85.6621 356.07 85.5401 356.863 84.9734 357.275C83.8116 358.121 82.6695 358.993 81.5644 359.838C78.3669 362.282 75.0582 364.809 71.1697 366.743C70.9256 366.865 70.6793 366.988 70.4286 367.116C68.9029 367.888 67.1744 368.764 65.4416 369.159C65.3457 369.181 65.2498 369.191 65.1561 369.191Z" fill="white"/>
<path d="M88.2036 354.601C87.9094 354.601 87.6108 354.499 87.371 354.291C86.8392 353.833 86.7825 353.033 87.2424 352.506C87.4277 352.292 87.6282 352.092 87.8266 351.89C88.0576 351.658 88.2756 351.439 88.4434 351.22C88.8663 350.661 89.664 350.548 90.2242 350.967C90.7865 351.385 90.8999 352.179 90.4792 352.738C90.2067 353.098 89.9016 353.404 89.6335 353.675C89.4744 353.836 89.3153 353.994 89.167 354.163C88.9142 354.454 88.5589 354.601 88.2036 354.601Z" fill="white"/>
<path d="M61.9781 446.847C61.7143 446.847 61.4484 446.764 61.2196 446.597C60.655 446.181 60.5373 445.387 60.958 444.825C62.3486 442.965 63.9703 441.319 65.5396 439.727C67.6648 437.57 69.6722 435.531 71.113 433.037C72.9373 429.88 72.9308 426.829 72.9242 422.967V422.288C72.9242 421.59 73.4931 421.021 74.1972 421.021C74.9012 421.021 75.4701 421.587 75.4701 422.288V422.962C75.4766 427.035 75.4831 430.552 73.3209 434.299C71.7189 437.075 69.5022 439.324 67.3596 441.501C65.8513 443.032 64.2907 444.617 63.0047 446.339C62.7519 446.669 62.3682 446.847 61.9781 446.847Z" fill="white"/>
<path d="M71.9043 417.474C71.3529 417.474 70.845 417.114 70.6837 416.561C70.3524 415.429 69.9187 414.301 69.498 413.213C68.5019 410.634 67.4709 407.969 67.5821 404.771C67.6061 404.072 68.1924 403.526 68.8964 403.547C69.5982 403.571 70.1475 404.157 70.1235 404.855C70.032 407.538 70.9256 409.851 71.8716 412.302C72.3119 413.44 72.7653 414.618 73.1271 415.852C73.3232 416.524 72.9353 417.227 72.2596 417.42C72.1419 417.459 72.022 417.474 71.9043 417.474Z" fill="white"/>
</svg>
